# xmcd CD database file
#
# Track frame offsets:
#	225
#	21945
#	39933
#	59962
#	87781
#	102610
#	124736
#	146414
#	162817
#	177345
#	196198
#	216953
#	230800
#	254328
#
# Disc length: 3713 seconds
#
# Revision: 0
# Processed by: cddbd v1.4PL0 Copyright (c) Steve Scherf et al.
# Submitted via: CDex 1.51
#
DISCID=cc0e7e0e
DTITLE=Joe Augustine - Joe Augustine
DYEAR=2000
DGENRE=Jazz
TTITLE0=Killer Joe
TTITLE1=Chill Out
TTITLE2=Cute Li' l Darlin'
TTITLE3=The Look Of Love
TTITLE4=License To Groove
TTITLE5=Angel Eyes
TTITLE6=Hot Salsa
TTITLE7=Another Rainy Day
TTITLE8=The Dukester
TTITLE9=Love's A Groove
TTITLE10=Smooch
TTITLE11=Doxy
TTITLE12=Dreamwave
TTITLE13=Midnight Mood
EXTD=YEAR: 2000
EXTT0=
EXTT1=
EXTT2=
EXTT3=
EXTT4=
EXTT5=
EXTT6=
EXTT7=
EXTT8=
EXTT9=
EXTT10=
EXTT11=
EXTT12=
EXTT13=
PLAYORDER=
